<?xml version="1.0" encoding="utf-8"?>
<svg version="1.1" id="Layer_1" xmlns="http://www.w3.org/2000/svg" xmlns:xlink="http://www.w3.org/1999/xlink" x="0px" y="0px"
	 viewBox="0 0 1426.917 1657.055" enable-background="new 0 0 1426.917 1657.055" xml:space="preserve">
<path fill="#231F20" d="M758.44,60.973c126.608-46.771,275.709-49.232,373.814,37.683c17.698,10.577,36.331,20.037,51.509,34.304
	c67.759,57.173,61.252,146.926,14.501,224.746c23.363,25.702,35.682,58.863,50.235,89.815
	c52.635,74.1,38.501,178.812,39.372,227.604c27.108-1.291,31.173-10.715,50.209-31.732c-2.703,27.547-22.22,49.326-38.618,70.194
	c18.582,27.495,42.231,51.145,64.347,75.807c9.928,12.241,24.923,18.478,36.15,29.263c5.068,4.106,0.832,10.889-1.248,15.463
	c-22.751,38.846-60.292,45.36-51.301,71.753c2.469,12.007,11.643,20.661,17.36,31.056c8.48,18.388-12.266,14.687-25.754,40.62
	c6.679,6.991,14.19,15.541,11.123,26.092c-1.871,13.332-13.098,21.31-22.142,29.886c-30.505,33.172-14.19,65.814-14.19,83.162
	c0.689,70.309-56.821,92.139-97.534,88.594c-197.104-12.933-172.781,4.373-194.392,34.33
	c-79.104,117.654-75.249,112.222-81.265,118.584c-48.228,49.917-55.345,132.137-44.856,200.759
	c3.352,24.663,14.761,47.169,24.949,69.57H294.681c55.875-67.361,117.389-131.136,189.74-180.852
	c19.673-38.125,31.264-80.199,36.825-122.664c-11.738,1.235-178.88,55.011-252.917-33.083
	c-72.788,23.748-123.901-1.08-147.067-47.688c-14.677-29.183-31.824-30.742-55.303-122.742c-1.871-12.11-7.796-24.429-4.054-36.695
	c5.561-18.79,0.52-38.489-4.418-56.81c-3.906-17.144-40.811-39.765-14.008-125.341c12.06-33.334-2.594-12.601,95.766-120.403
	c-61.938-7.936-83.001-41.803-72.247-91.296c-15.619-6.627-33.889-14.631-39.762-31.991c-4.99-24.299,15.359-43.166,32.459-56.836
	c-48.874-30.872-43.196-70.09-5.042-103.927c2.599-2.989,7.692-5.406,6.575-10.109c-5.228-42.961,15.601-64.451,56.81-74.638
	c-2.173-44.86,28.634-54.252,73.157-56.524c7.692-12.682,18.737-26.326,34.902-26.69c19.179-1.221,33.005,13.826,46.129,25.442
	C405.136,50.291,748.284,64.063,758.44,60.973z"/>
</svg>
