<?xml version="1.0" encoding="iso-8859-1"?>
<!-- Uploaded to: SVG Repo, www.svgrepo.com, Generator: SVG Repo Mixer Tools -->
<!DOCTYPE svg PUBLIC "-//W3C//DTD SVG 1.1//EN" "http://www.w3.org/Graphics/SVG/1.1/DTD/svg11.dtd">
<svg fill="#000000" version="1.1" id="Capa_1" xmlns="http://www.w3.org/2000/svg" xmlns:xlink="http://www.w3.org/1999/xlink" 
	 width="800px" height="800px" viewBox="0 0 28.873 28.873"
	 xml:space="preserve">
<g>
	<path d="M7.137,21.848l-0.355,7.025h10.137l0.777-3.23c0,0,0.439,0.738,3.06,0.96c2.619,0.222,2.3-2.976,2.3-2.976
		s1.744-0.77,1.744-1.346c0-0.578-1.032-1.322-1.032-1.322s1.109,0.199,1.512-0.268c0.399-0.467-0.49-2.154-0.49-2.154
		s1.368-0.035,2.175-0.922c0.805-0.887-2.539-3.509-2.539-5.199c1.892-9.269-5.64-13.511-13.998-12.176
		c-8.36,1.333-8.046,6.39-8.538,8.803C0.912,15.09,7.137,21.848,7.137,21.848z"/>
</g>
</svg>